<svg xmlns="http://www.w3.org/2000/svg" width="1440" height="900"><path d="M832,231L1112,78L812,72Z" fill="#9dd0d5" stroke="#9dd0d5" stroke-width="1.51"/><path d="M1112,78L927,-280L812,72Z" fill="#a8d1df" stroke="#a8d1df" stroke-width="1.51"/><path d="M832,231L1230,480L1112,78Z" fill="#85bac1" stroke="#85bac1" stroke-width="1.51"/><path d="M1230,480L1312,403L1112,78Z" fill="#74a5b5" stroke="#74a5b5" stroke-width="1.51"/><path d="M1112,78L1142,-565L927,-280Z" fill="#a0c5d8" stroke="#a0c5d8" stroke-width="1.51"/><path d="M832,231L1019,573L1230,480Z" fill="#64b2c3" stroke="#64b2c3" stroke-width="1.51"/><path d="M832,231L651,793L1019,573Z" fill="#5fbbcf" stroke="#5fbbcf" stroke-width="1.51"/><path d="M812,72L518,276L832,231Z" fill="#a9dcc8" stroke="#a9dcc8" stroke-width="1.51"/><path d="M329,-48L518,276L812,72Z" fill="#c4e8c9" stroke="#c4e8c9" stroke-width="1.51"/><path d="M371,-229L329,-48L812,72Z" fill="#d3eed4" stroke="#d3eed4" stroke-width="1.51"/><path d="M1312,403L1632,5L1112,78Z" fill="#839db4" stroke="#839db4" stroke-width="1.51"/><path d="M927,-280L371,-229L812,72Z" fill="#bee5d9" stroke="#bee5d9" stroke-width="1.51"/><path d="M1633,453L1677,187L1312,403Z" fill="#65899d" stroke="#65899d" stroke-width="1.51"/><path d="M1312,403L1677,187L1632,5Z" fill="#7c91a6" stroke="#7c91a6" stroke-width="1.51"/><path d="M1632,5L1142,-565L1112,78Z" fill="#94aaca" stroke="#94aaca" stroke-width="1.51"/><path d="M927,-280L615,-509L371,-229Z" fill="#c5e8d6" stroke="#c5e8d6" stroke-width="1.51"/><path d="M1381,966L1633,453L1230,480Z" fill="#276ea6" stroke="#276ea6" stroke-width="1.51"/><path d="M518,276L651,793L832,231Z" fill="#87cfc1" stroke="#87cfc1" stroke-width="1.51"/><path d="M105,446L651,793L518,276Z" fill="#98d3c5" stroke="#98d3c5" stroke-width="1.51"/><path d="M1142,-565L615,-509L927,-280Z" fill="#acd8e2" stroke="#acd8e2" stroke-width="1.51"/><path d="M1230,480L1633,453L1312,403Z" fill="#5089a8" stroke="#5089a8" stroke-width="1.51"/><path d="M1381,966L1230,480L1019,573Z" fill="#237fb8" stroke="#237fb8" stroke-width="1.51"/><path d="M651,793L887,923L1019,573Z" fill="#4094c0" stroke="#4094c0" stroke-width="1.51"/><path d="M698,880L887,923L651,793Z" fill="#4c87aa" stroke="#4c87aa" stroke-width="1.51"/><path d="M615,-509L296,-356L371,-229Z" fill="#dbf1d7" stroke="#dbf1d7" stroke-width="1.51"/><path d="M371,-229L296,-356L329,-48Z" fill="#e3f4dc" stroke="#e3f4dc" stroke-width="1.51"/><path d="M17,506L105,446L-271,241Z" fill="#c5e8d6" stroke="#c5e8d6" stroke-width="1.51"/><path d="M329,-48L105,446L518,276Z" fill="#cfecc7" stroke="#cfecc7" stroke-width="1.51"/><path d="M651,793L255,973L698,880Z" fill="#698da0" stroke="#698da0" stroke-width="1.51"/><path d="M887,923L1381,966L1019,573Z" fill="#1d72ad" stroke="#1d72ad" stroke-width="1.51"/><path d="M1997,-452L1678,-556L1632,5Z" fill="#8d98b8" stroke="#8d98b8" stroke-width="1.51"/><path d="M1632,5L1678,-556L1142,-565Z" fill="#8d98b8" stroke="#8d98b8" stroke-width="1.51"/><path d="M105,446L255,973L651,793Z" fill="#87b0bf" stroke="#87b0bf" stroke-width="1.51"/><path d="M-271,241L105,446L329,-48Z" fill="#dff3d8" stroke="#dff3d8" stroke-width="1.51"/><path d="M17,506L255,973L105,446Z" fill="#9bc5d3" stroke="#9bc5d3" stroke-width="1.51"/><path d="M698,880L893,1275L887,923Z" fill="#3f7ca7" stroke="#3f7ca7" stroke-width="1.51"/><path d="M887,923L893,1275L1381,966Z" fill="#2168a1" stroke="#2168a1" stroke-width="1.51"/><path d="M1677,187L2116,-26L1632,5Z" fill="#8896b3" stroke="#8896b3" stroke-width="1.51"/><path d="M1633,453L2060,246L1677,187Z" fill="#6f8c9f" stroke="#6f8c9f" stroke-width="1.51"/><path d="M1991,779L2060,246L1633,453Z" fill="#447ea5" stroke="#447ea5" stroke-width="1.51"/><path d="M1381,966L1799,868L1633,453Z" fill="#105898" stroke="#105898" stroke-width="1.51"/><path d="M17,506L-67,609L255,973Z" fill="#99bdd2" stroke="#99bdd2" stroke-width="1.51"/><path d="M-363,339L-67,609L17,506Z" fill="#b7e0dc" stroke="#b7e0dc" stroke-width="1.51"/><path d="M460,1522L893,1275L698,880Z" fill="#5384a1" stroke="#5384a1" stroke-width="1.51"/><path d="M1798,1295L1938,934L1799,868Z" fill="#084081" stroke="#084081" stroke-width="1.51"/><path d="M2060,246L2116,-26L1677,187Z" fill="#8093ac" stroke="#8093ac" stroke-width="1.51"/><path d="M296,-356L-151,-270L329,-48Z" fill="#edf8e7" stroke="#edf8e7" stroke-width="1.51"/><path d="M-222,-435L-151,-270L296,-356Z" fill="#f7fcf0" stroke="#f7fcf0" stroke-width="1.51"/><path d="M2116,-26L1997,-452L1632,5Z" fill="#8d98b8" stroke="#8d98b8" stroke-width="1.51"/><path d="M1799,868L1991,779L1633,453Z" fill="#1a619d" stroke="#1a619d" stroke-width="1.51"/><path d="M2060,246L1991,779L2116,-26Z" fill="#688b9d" stroke="#688b9d" stroke-width="1.51"/><path d="M-151,-270L-271,241L329,-48Z" fill="#f7fcf0" stroke="#f7fcf0" stroke-width="1.51"/><path d="M1799,868L1938,934L1991,779Z" fill="#094788" stroke="#094788" stroke-width="1.51"/><path d="M1798,1295L1799,868L1381,966Z" fill="#084081" stroke="#084081" stroke-width="1.51"/><path d="M-151,-270L-419,79L-271,241Z" fill="#f6fcee" stroke="#f6fcee" stroke-width="1.51"/><path d="M615,-509L-222,-435L296,-356Z" fill="#e9f7e2" stroke="#e9f7e2" stroke-width="1.51"/><path d="M1142,-565L-222,-435L615,-509Z" fill="#d3eed4" stroke="#d3eed4" stroke-width="1.51"/><path d="M-271,241L-363,339L17,506Z" fill="#cbebd4" stroke="#cbebd4" stroke-width="1.51"/><path d="M-67,609L-100,1098L255,973Z" fill="#8b99b8" stroke="#8b99b8" stroke-width="1.51"/><path d="M-419,79L-363,339L-271,241Z" fill="#e2f4db" stroke="#e2f4db" stroke-width="1.51"/><path d="M-580,-386L-419,79L-151,-270Z" fill="#f7fcf0" stroke="#f7fcf0" stroke-width="1.51"/><path d="M460,1522L1246,1500L893,1275Z" fill="#3879a8" stroke="#3879a8" stroke-width="1.51"/><path d="M893,1275L1246,1500L1381,966Z" fill="#155c9b" stroke="#155c9b" stroke-width="1.51"/><path d="M1246,1500L1798,1295L1381,966Z" fill="#084081" stroke="#084081" stroke-width="1.51"/><path d="M255,973L460,1522L698,880Z" fill="#6f8c9f" stroke="#6f8c9f" stroke-width="1.51"/><path d="M-527,839L-100,1098L-67,609Z" fill="#91a2c2" stroke="#91a2c2" stroke-width="1.51"/><path d="M336,1516L460,1522L255,973Z" fill="#7a90a4" stroke="#7a90a4" stroke-width="1.51"/><path d="M-100,1098L336,1516L255,973Z" fill="#8394af" stroke="#8394af" stroke-width="1.51"/><path d="M1246,1500L1924,1354L1798,1295Z" fill="#084081" stroke="#084081" stroke-width="1.51"/><path d="M1798,1295L1924,1354L1938,934Z" fill="#084081" stroke="#084081" stroke-width="1.51"/><path d="M1938,934L1924,1354L1991,779Z" fill="#084081" stroke="#084081" stroke-width="1.51"/><path d="M1991,779L1924,1354L2116,-26Z" fill="#1a619d" stroke="#1a619d" stroke-width="1.51"/><path d="M-222,-435L-580,-386L-151,-270Z" fill="#f7fcf0" stroke="#f7fcf0" stroke-width="1.51"/><path d="M-681,702L-527,839L-363,339Z" fill="#a5cbdc" stroke="#a5cbdc" stroke-width="1.51"/><path d="M-100,1098L-20,1523L336,1516Z" fill="#8996b4" stroke="#8996b4" stroke-width="1.51"/><path d="M-363,339L-527,839L-67,609Z" fill="#a8d1df" stroke="#a8d1df" stroke-width="1.51"/><path d="M-681,702L-363,339L-419,79Z" fill="#caead5" stroke="#caead5" stroke-width="1.51"/><path d="M336,1516L-20,1523L460,1522Z" fill="#7e93aa" stroke="#7e93aa" stroke-width="1.51"/><path d="M-410,1416L-20,1523L-100,1098Z" fill="#8d98b8" stroke="#8d98b8" stroke-width="1.51"/><path d="M-527,839L-410,1416L-100,1098Z" fill="#8d98b8" stroke="#8d98b8" stroke-width="1.51"/><path d="M-580,-386L-681,702L-419,79Z" fill="#eaf7e3" stroke="#eaf7e3" stroke-width="1.51"/><path d="M-681,702L-410,1416L-527,839Z" fill="#8d98b8" stroke="#8d98b8" stroke-width="1.51"/></svg>